<svg width="20" height="20" viewBox="0 0 20 20" fill="none" xmlns="http://www.w3.org/2000/svg">
<path d="M6.66659 8.33341C6.66659 6.49175 8.15825 5.00008 9.99992 5.00008V6.66675C9.08325 6.66675 8.33325 7.41675 8.33325 8.33341H6.66659ZM16.6666 9.16675C16.6666 12.7251 14.4249 15.8417 11.2999 16.5251L12.4999 18.3334H7.49992L8.70825 16.5251C5.58325 15.8417 3.33325 12.7251 3.33325 9.16675C3.33325 5.13341 6.21659 1.66675 9.99992 1.66675C13.7833 1.66675 16.6666 5.13341 16.6666 9.16675ZM9.99992 15.0001C12.6583 15.0001 14.9999 12.5001 14.9999 9.16675C14.9999 5.83341 12.6583 3.33341 9.99992 3.33341C7.34159 3.33341 4.99992 5.83341 4.99992 9.16675C4.99992 12.5001 7.34159 15.0001 9.99992 15.0001Z" fill="#536471"/>
</svg>
