<svg width="17" height="17" viewBox="0 0 17 17" fill="none" xmlns="http://www.w3.org/2000/svg">
<path d="M17 8.5C16.9837 7.9156 16.8055 7.34658 16.4844 6.85717C16.1641 6.36867 15.7136 5.97786 15.1835 5.72999C15.3852 5.18087 15.4277 4.58653 15.3101 4.01389C15.1916 3.44035 14.9148 2.91204 14.5122 2.48776C14.0871 2.0852 13.5597 1.80928 12.9861 1.68987C12.4135 1.57226 11.8191 1.61478 11.27 1.81652C11.023 1.28549 10.6331 0.834078 10.1437 0.513836C9.65432 0.193593 9.0853 0.0144742 8.5 0C7.9156 0.0153789 7.34839 0.192688 6.85989 0.513836C6.37138 0.834983 5.98329 1.2864 5.73813 1.81652C5.18811 1.61478 4.59195 1.57046 4.01751 1.68987C3.44306 1.80747 2.91385 2.08429 2.48867 2.48776C2.0861 2.91294 1.81109 3.44216 1.69439 4.01479C1.57679 4.58743 1.62202 5.18178 1.82466 5.72999C1.29364 5.97786 0.841315 6.36776 0.519264 6.85627C0.197212 7.34477 0.0171882 7.9147 0 8.5C0.0180928 9.0853 0.197212 9.65432 0.519264 10.1437C0.841315 10.6322 1.29364 11.023 1.82466 11.27C1.62202 11.8182 1.57679 12.4126 1.69439 12.9852C1.81199 13.5587 2.0861 14.0871 2.48776 14.5122C2.91294 14.913 3.44125 15.188 4.01389 15.3065C4.58653 15.4259 5.18087 15.3825 5.72999 15.1835C5.97786 15.7136 6.36776 16.1641 6.85717 16.4853C7.34568 16.8055 7.9156 16.9837 8.5 17C9.0853 16.9855 9.65432 16.8073 10.1437 16.4871C10.6331 16.1668 11.023 15.7145 11.27 15.1844C11.8164 15.4006 12.4153 15.4522 12.9915 15.3327C13.5669 15.2133 14.0952 14.9284 14.5113 14.5122C14.9275 14.0961 15.2133 13.5678 15.3327 12.9915C15.4522 12.4153 15.4006 11.8164 15.1835 11.27C15.7136 11.0221 16.1641 10.6322 16.4853 10.1428C16.8055 9.65432 16.9837 9.0844 17 8.5ZM7.28959 11.9829L4.18758 8.88176L5.35728 7.70392L7.23169 9.57833L11.2121 5.24149L12.4307 6.36867L7.28959 11.9829Z" fill="#1D9BF0"/>
</svg>
