<svg width="20" height="20" viewBox="0 0 20 20" fill="none" xmlns="http://www.w3.org/2000/svg">
<path d="M10.0001 5.83341C8.39175 5.83341 7.08342 7.14175 7.08342 8.75008C7.08342 10.3584 8.39175 11.6667 10.0001 11.6667C11.6084 11.6667 12.9167 10.3584 12.9167 8.75008C12.9167 7.14175 11.6084 5.83341 10.0001 5.83341ZM10.0001 10.0001C9.31091 10.0001 8.75008 9.43925 8.75008 8.75008C8.75008 8.06091 9.31091 7.50008 10.0001 7.50008C10.6892 7.50008 11.2501 8.06091 11.2501 8.75008C11.2501 9.43925 10.6892 10.0001 10.0001 10.0001ZM10.0001 1.66675C6.09425 1.66675 2.91675 4.84425 2.91675 8.75008C2.91675 13.7226 9.26758 18.0134 9.53758 18.1934L10.0001 18.5017L10.4626 18.1934C10.7326 18.0134 17.0834 13.7226 17.0834 8.75008C17.0834 4.84425 13.9059 1.66675 10.0001 1.66675ZM10.0001 16.4751C8.61258 15.4409 4.58341 12.1451 4.58341 8.75008C4.58341 5.76341 7.01341 3.33341 10.0001 3.33341C12.9867 3.33341 15.4167 5.76341 15.4167 8.75008C15.4167 12.1442 11.3876 15.4401 10.0001 16.4751Z" fill="#536471"/>
</svg>
