<svg width="17" height="15" viewBox="0 0 17 15" fill="none" xmlns="http://www.w3.org/2000/svg">
<path d="M0 2.08333C0 0.9325 0.9325 0 2.08333 0H14.5833C15.7342 0 16.6667 0.9325 16.6667 2.08333V12.9167C16.6667 14.0675 15.7342 15 14.5833 15H2.08333C0.9325 15 0 14.0675 0 12.9167V2.08333ZM2.08333 1.66667C1.85333 1.66667 1.66667 1.85333 1.66667 2.08333V4.38667L8.33333 7.41833L15 4.38833V2.08333C15 1.85333 14.8133 1.66667 14.5833 1.66667H2.08333ZM15 6.21917L8.33333 9.24917L1.66667 6.2175V12.9167C1.66667 13.1467 1.85333 13.3333 2.08333 13.3333H14.5833C14.8133 13.3333 15 13.1467 15 12.9167V6.21917Z" fill="#0F1419"/>
</svg>
