<svg width="20" height="20" viewBox="0 0 20 20" fill="none" xmlns="http://www.w3.org/2000/svg">
<path d="M16.2501 5.00008H14.1667V3.75008C14.1667 2.60008 13.2334 1.66675 12.0834 1.66675H7.91675C6.76675 1.66675 5.83341 2.60008 5.83341 3.75008V5.00008H3.75008C2.60008 5.00008 1.66675 5.93341 1.66675 7.08341V15.4167C1.66675 16.5667 2.60008 17.5001 3.75008 17.5001H16.2501C17.4001 17.5001 18.3334 16.5667 18.3334 15.4167V7.08341C18.3334 5.93341 17.4001 5.00008 16.2501 5.00008ZM7.50008 3.75008C7.50008 3.51675 7.69175 3.33341 7.91675 3.33341H12.0834C12.3167 3.33341 12.5001 3.51675 12.5001 3.75008V5.00008H7.50008V3.75008ZM16.6667 15.4167C16.6667 15.6501 16.4834 15.8334 16.2501 15.8334H3.75008C3.52508 15.8334 3.33341 15.6501 3.33341 15.4167V12.8834C3.82508 13.1751 4.39175 13.3334 5.00008 13.3334H9.16675V14.1667H10.8334V13.3334H15.0001C15.6084 13.3334 16.1751 13.1751 16.6667 12.8834V15.4167ZM16.6667 10.0084C16.6667 10.9251 15.9167 11.6667 15.0001 11.6667H10.8334V10.8334H9.16675V11.6667H5.00008C4.08341 11.6667 3.33341 10.9167 3.33341 10.0001V7.08341C3.33341 6.85008 3.52508 6.66675 3.75008 6.66675H16.2501C16.4834 6.66675 16.6667 6.85008 16.6667 7.08341V10.0084Z" fill="#536471"/>
</svg>
