<svg width="17" height="12" viewBox="0 0 17 12" fill="none" xmlns="http://www.w3.org/2000/svg">
<path d="M3.30089 0L6.60179 3.14251L5.37838 4.47259L4.19729 3.35445V8.74056C4.19729 9.44945 4.75951 10.0195 5.45225 10.0195H9.21712V11.8465H5.45225C3.76917 11.8465 2.4045 10.458 2.4045 8.74056V3.35445L1.2234 4.47259L0 3.14251L3.30089 0ZM11.5478 1.98051H7.78288V0.153471H11.5478C13.2308 0.153471 14.5955 1.54202 14.5955 3.25944V8.64556L15.7766 7.52741L17 8.85749L13.6991 12L10.3982 8.85749L11.6216 7.52741L12.8027 8.64556V3.25944C12.8027 2.55055 12.2405 1.98051 11.5478 1.98051Z" fill="#536471"/>
</svg>
