<?xml version="1.0" encoding="UTF-8"?>
<svg id="Layer_1" data-name="Layer 1" xmlns="http://www.w3.org/2000/svg" width="180" height="180" viewBox="0 0 180 180">
  <defs>
    <style>
      .cls-1, .cls-2, .cls-3 {
        fill: #fff;
      }

      .cls-2 {
        font-size: 6.01px;
      }

      .cls-2, .cls-3 {
        font-family: AcuminConcept-CondensedBlack, 'Acumin Variable Concept';
        font-variation-settings: 'wght' 800, 'wdth' 67, 'slnt' 0;
        font-weight: 800;
      }

      .cls-3 {
        font-size: 2.57px;
      }
    </style>
  </defs>
  <g>
    <g>
      <path class="cls-1" d="m45.53,132.61l-1.5-.03v.56s1.56.9,1.56.9l1.22.74v1.99c-.06.21-.19.38-.38.44h-2.99c-.26-.04-.54-.2-.61-.43v-1.23h1.28v.41s1.54.03,1.54.03v-.51s-1.56-.9-1.56-.9l-1.26-.74v-2.01c.03-.22.2-.42.42-.47h2.94c.28.04.57.21.63.49v1.35l-1.28-.02v-.56Z"/>
      <path class="cls-1" d="m79.19,131.33h-3.36v5.89h1.22v-1.76h2.17s.04,0,.05,0c.27-.03.55-.23.54-.58v-2.88c0-.24-.5-.67-.63-.67Zm-.6,2.84h-1.54v-1.64h1.54v1.64Z"/>
      <path class="cls-1" d="m87.92,132.49v1.1h1.09v1.25h-1.09v1.11h2.74v.81c-.08.24-.31.43-.58.43h-3.41v-5.85h3.4c.3,0,.56.25.59.54v.61h-2.74Z"/>
      <polygon class="cls-1" points="105.03 131.34 103.51 137.22 102.18 137.22 101.54 134.92 101.42 134.44 101.3 134.94 100.7 137.22 99.35 137.22 98.73 134.96 98.37 133.69 97.73 131.34 99.04 131.34 99.68 133.66 100.02 134.89 100.34 133.68 100.76 132.01 100.94 131.34 101.85 131.34 102.03 132.01 102.5 133.69 102.85 134.89 102.97 134.39 103.73 131.34 105.03 131.34"/>
      <polygon class="cls-1" points="60.97 131.34 59.46 137.22 58.13 137.22 57.49 134.92 57.37 134.44 57.25 134.94 56.65 137.22 55.3 137.22 54.67 134.96 54.32 133.69 53.67 131.34 54.99 131.34 55.63 133.66 55.98 134.89 56.28 133.68 56.71 132.01 56.89 131.34 57.8 131.34 57.98 132.01 58.45 133.69 58.8 134.89 58.92 134.39 59.68 131.34 60.97 131.34"/>
      <rect class="cls-1" x="111.74" y="131.34" width="1.24" height="5.87"/>
      <rect class="cls-1" x="68.05" y="131.34" width="1.24" height="5.87"/>
      <path class="cls-1" d="m123.95,136.87l-.81-1.44c.09,0,.18,0,.27,0,.04,0,.09,0,.15-.03.02,0,.13-.04.22-.14.16-.15.17-.36.18-.41v-2.86c0-.2-.13-.42-.27-.51-.1-.06-.22-.07-.35-.09h-3.33l-.03,5.7h1.19l-.02-1.66h.48s1.08,1.66,1.08,1.66h1.38l-.13-.22Zm-1.29-2.67h-1.51s.01-1.57.01-1.57h1.51s-.02,1.57-.02,1.57Z"/>
    </g>
    <path class="cls-1" d="m132.36,132.51v1.12h1.17v1.2h-1.17v1.1h2.76v.88c-.09.22-.32.38-.6.38h-3.4v-.59s0-5.27,0-5.27h3.37c.31-.02.6.22.63.57v.6h-2.76Z"/>
  </g>
  <path class="cls-1" d="m147.91,154.01c-15.22,13.51-35.31,21.72-57.31,21.72-47.57,0-86.13-38.35-86.13-85.65S43.02,4.42,90.59,4.42c21.84,0,41.79,8.09,56.97,21.42l4.31-.09C135.96,10.42,114.37,1,90.59,1,41.67,1,2.01,40.88,2.01,90.07s39.66,89.07,88.59,89.07c23.79,0,45.39-9.43,61.31-24.77l-3.99-.36Z"/>
  <path class="cls-1" d="m52.08,103.05c.39-.6.9-1.24,1.71-1.74.89-.55,1.94-.8,3.16-.8,14.86.03,29.73.02,44.59.02.73,0,1.45,0,2.16-.23.86-.29,1.56-.81,1.86-1.65.54-1.49.5-3.04.6-4.61.03-.54-.05-.97-.3-1.27,0,0-.32-.39-.98-.52-1.83-.34-24.47.57-33.56.09-3.23-.17-7.69-.65-11.39-3.7-4.14-3.4-5.68-8.13-5.3-13.4.32-4.53.95-9.08,2.51-13.33,1.29-3.5,3.13-6.43,5.48-8.81,4.62-4.69,9.92-6.13,11.78-6.6,3.51-.89,6.29-.8,7.83-.77,8.41.18,42.96.04,45.55,0,.42,0,1.87-.08,3.02.84,1.04.83,1.67,1.88,1.43,3.23-.64,3.53-1.3,7.07-2.04,10.58-.61,2.89-2.53,4.38-5.47,4.39-4.33.02-8.65,0-12.98,0-10.28,0-20.56,0-30.84,0-2.49,0-3.41.74-3.89,3.14-.25,1.26-.5,2.52-.65,3.79-.21,1.73.56,2.59,2.3,2.61,2.27.03,4.54,0,6.81,0,8.91,0,17.82-.02,26.73.02,4.08.02,7.77,1.27,10.83,4.02,1.66,1.49,2.89,3.14,3.73,4.93,1.49,3.17,1.4,5.95,1.23,9.74-.22,5.11-1.51,8.83-1.9,9.91-1.31,3.59-3.03,6.31-4.38,8.12h0c-1.72,2.14-5.05,5.7-9.94,7.54-2.49.94-4.71,1.24-4.71,1.24-3.24.31-6.75.29-7.09.29-15.36,0-30.73-.29-46.09-.3-.55,0-1.12.03-1.66-.09-.83-.17-1.48-.54-1.94-1.06-.91-1.03-.81-2.53-.67-3.93.78-7.65,1.2-9.79,2.48-11.75Z"/>
  <text class="cls-2" transform="translate(155.8 149.87) rotate(-51.39)"><tspan x="0" y="0"> </tspan></text>
  <text class="cls-3" transform="translate(159.79 144.55) rotate(-55.15)"><tspan x="0" y="0"> </tspan></text>
  <text class="cls-2" transform="translate(161.4 142.21) rotate(-57.5)"><tspan x="0" y="0">K</tspan></text>
  <text class="cls-2" transform="translate(165.82 134.82) rotate(-62.31)"><tspan x="0" y="0">E</tspan></text>
  <text class="cls-2" transform="translate(169.5 127.3) rotate(-67.17)"><tspan x="0" y="0">E</tspan></text>
  <text class="cls-2" transform="translate(172.54 119.43) rotate(-72.28)"><tspan x="0" y="0">P</tspan></text>
  <text class="cls-2" transform="translate(174.92 111.05) rotate(-77.04)"><tspan x="0" y="0"> </tspan></text>
  <text class="cls-2" transform="translate(176.23 104.46) rotate(-81.41)"><tspan x="0" y="0">I</tspan></text>
  <text class="cls-2" transform="translate(177.1 97.19) rotate(-86.33)"><tspan x="0" y="0">T</tspan></text>
  <text class="cls-2" transform="translate(177.37 88.85) rotate(-91.04)"><tspan x="0" y="0"> </tspan></text>
  <text class="cls-2" transform="translate(177.05 82.11) rotate(-95.79)"><tspan x="0" y="0">S</tspan></text>
  <text class="cls-2" transform="translate(175.9 73.57) rotate(-100.76)"><tspan x="0" y="0">I</tspan></text>
  <text class="cls-2" transform="translate(174.33 66.44) rotate(-106.03)"><tspan x="0" y="0">M</tspan></text>
  <text class="cls-2" transform="translate(171.35 57.19) rotate(-111.66)"><tspan x="0" y="0">P</tspan></text>
  <text class="cls-2" transform="translate(167.92 49.25) rotate(-116.68)"><tspan x="0" y="0">L</tspan></text>
  <text class="cls-2" transform="translate(164.04 42.05) rotate(-121.48)"><tspan x="0" y="0">E</tspan></text>
</svg>